<?xml version="1.0" encoding="UTF-8" standalone="no"?><!DOCTYPE svg PUBLIC "-//W3C//DTD SVG 1.1//EN" "http://www.w3.org/Graphics/SVG/1.1/DTD/svg11.dtd"><svg width="100%" height="100%" viewBox="0 0 1498 816" version="1.1" xmlns="http://www.w3.org/2000/svg" xmlns:xlink="http://www.w3.org/1999/xlink" xml:space="preserve" xmlns:serif="http://www.serif.com/" style="fill-rule:evenodd;clip-rule:evenodd;stroke-linejoin:round;stroke-miterlimit:1.41421;"><path d="M1498,815.691l-1301.53,0l-196.469,-196.469l0,-422.753l196.469,-196.469l1301.53,0l0,815.691Zm-1379.88,-460.613c29.123,0 52.767,23.644 52.767,52.767c0,29.124 -23.644,52.768 -52.767,52.768c-29.123,0 -52.768,-23.644 -52.768,-52.768c0,-29.123 23.645,-52.767 52.768,-52.767Z" style="fill:#003815;"/><g><path d="M248.521,698.051l106.266,-42.136l-106.266,-42.367l0,-49.313l174.563,73.622l0,36.116l-174.563,73.391l0,-49.313Z" style="fill:#9ec2a6;fill-rule:nonzero;"/><path d="M326.542,516.311l0,-8.566c0,-8.952 -1.852,-15.821 -5.556,-20.605c-3.705,-4.785 -9.029,-7.177 -15.975,-7.177c-6.945,0 -12.27,2.392 -15.975,7.177c-3.704,4.784 -5.556,11.653 -5.556,20.605l0,8.566l43.062,0Zm96.542,-99.784l0,56.49l-67.139,43.294l67.139,0l0,45.377l-174.563,0l0,-70.612c0,-9.724 1.428,-18.213 4.283,-25.467c2.856,-7.254 6.753,-13.235 11.692,-17.943c4.939,-4.707 10.649,-8.257 17.132,-10.649c6.482,-2.393 13.428,-3.589 20.836,-3.589c13.274,0 24.04,3.203 32.297,9.608c8.257,6.405 13.852,15.859 16.785,28.361l71.538,-54.87Z" style="fill:#9ec2a6;fill-rule:nonzero;"/><path d="M325.385,330.635l0,-90.06c9.26,0 17.672,0.386 25.235,1.157c7.563,0.772 14.585,2.316 21.068,4.631c9.106,3.241 17.171,7.64 24.193,13.196c7.023,5.557 12.888,12.078 17.595,19.563c4.708,7.486 8.296,15.705 10.766,24.657c2.469,8.952 3.704,18.367 3.704,28.245c0,13.582 -2.238,25.968 -6.714,37.158c-4.476,11.19 -10.765,20.798 -18.868,28.824c-8.103,8.026 -17.827,14.277 -29.171,18.753c-11.345,4.476 -23.885,6.714 -37.622,6.714c-13.582,0 -26.045,-2.2 -37.39,-6.598c-11.344,-4.399 -21.029,-10.65 -29.055,-18.753c-8.026,-8.103 -14.277,-17.866 -18.753,-29.287c-4.476,-11.422 -6.714,-24.155 -6.714,-38.2c0,-18.213 3.936,-34.187 11.808,-47.924c7.871,-13.737 20.064,-24.618 36.579,-32.644l17.827,43.062c-9.569,4.013 -16.438,9.222 -20.605,15.627c-4.167,6.406 -6.251,13.699 -6.251,21.879c0,6.791 1.273,12.965 3.82,18.521c2.547,5.556 6.174,10.303 10.881,14.238c4.708,3.936 10.38,7.023 17.017,9.261c6.637,2.238 14.045,3.357 22.225,3.357c7.409,0 14.277,-0.965 20.605,-2.894c6.328,-1.929 11.808,-4.823 16.438,-8.682c4.63,-3.858 8.219,-8.643 10.765,-14.354c2.547,-5.711 3.82,-12.347 3.82,-19.91c0,-4.476 -0.501,-8.798 -1.504,-12.965c-1.004,-4.167 -2.624,-7.91 -4.862,-11.229c-2.238,-3.318 -5.132,-6.058 -8.682,-8.219c-3.55,-2.16 -7.872,-3.627 -12.965,-4.398l0,37.274l-35.19,0Z" style="fill:#9ec2a6;fill-rule:nonzero;"/><path d="M358.26,139.171l-58.111,20.373l58.111,20.374l0,-40.747Zm34.496,-12.039l0,64.824l30.328,10.419l0,48.387l-174.563,-66.446l0,-49.544l174.563,-66.445l0,48.387l-30.328,10.418Z" style="fill:#9ec2a6;fill-rule:nonzero;"/></g><g><g><path d="M589.364,84.618l30.581,77.123l30.748,-77.123l35.79,0l-53.432,126.69l-26.212,0l-53.264,-126.69l35.789,0Z" style="fill:#9ec2a6;fill-rule:nonzero;"/><path d="M766.798,112.51l-39.149,0l0,21.171l36.965,0l0,27.892l-36.965,0l0,21.843l39.149,0l0,27.892l-72.082,0l0,-126.69l72.082,0l0,27.892Z" style="fill:#9ec2a6;fill-rule:nonzero;"/><path d="M818.382,141.242l6.217,0c6.497,0 11.482,-1.344 14.954,-4.033c3.473,-2.688 5.209,-6.552 5.209,-11.593c0,-5.041 -1.736,-8.906 -5.209,-11.594c-3.472,-2.688 -8.457,-4.033 -14.954,-4.033l-6.217,0l0,31.253Zm72.419,70.066l-40.998,0l-31.421,-48.727l0,48.727l-32.933,0l0,-126.69l51.248,0c7.057,0 13.218,1.036 18.482,3.108c5.265,2.073 9.606,4.901 13.022,8.485c3.417,3.585 5.993,7.73 7.729,12.434c1.737,4.705 2.605,9.746 2.605,15.123c0,9.633 -2.324,17.446 -6.973,23.439c-4.649,5.993 -11.51,10.053 -20.583,12.182l39.822,51.919Z" style="fill:#9ec2a6;fill-rule:nonzero;"/><path d="M893.825,211.308l21.507,-126.69l32.597,0l25.372,67.546l25.204,-67.546l32.596,0l21.507,126.69l-32.764,0l-10.922,-72.922l-29.908,72.922l-13.106,0l-28.396,-72.922l-10.922,72.922l-32.765,0Z" style="fill:#9ec2a6;fill-rule:nonzero;"/><path d="M1097.13,147.963c0,5.041 0.952,9.689 2.856,13.946c1.905,4.257 4.481,7.953 7.73,11.09c3.248,3.136 7.029,5.573 11.341,7.309c4.313,1.736 8.878,2.604 13.694,2.604c4.817,0 9.382,-0.868 13.694,-2.604c4.313,-1.736 8.121,-4.173 11.426,-7.309c3.304,-3.137 5.909,-6.833 7.813,-11.09c1.904,-4.257 2.857,-8.905 2.857,-13.946c0,-5.041 -0.953,-9.689 -2.857,-13.946c-1.904,-4.257 -4.509,-7.953 -7.813,-11.09c-3.305,-3.136 -7.113,-5.572 -11.426,-7.309c-4.312,-1.736 -8.877,-2.604 -13.694,-2.604c-4.816,0 -9.381,0.868 -13.694,2.604c-4.312,1.737 -8.093,4.173 -11.341,7.309c-3.249,3.137 -5.825,6.833 -7.73,11.09c-1.904,4.257 -2.856,8.905 -2.856,13.946Zm-34.445,0c0,-9.409 1.736,-18.175 5.209,-26.296c3.472,-8.121 8.289,-15.206 14.45,-21.255c6.161,-6.049 13.526,-10.782 22.095,-14.198c8.569,-3.417 18.007,-5.125 28.312,-5.125c10.194,0 19.603,1.708 28.228,5.125c8.626,3.416 16.047,8.149 22.264,14.198c6.217,6.049 11.061,13.134 14.534,21.255c3.472,8.121 5.209,16.887 5.209,26.296c0,9.409 -1.737,18.175 -5.209,26.296c-3.473,8.121 -8.317,15.206 -14.534,21.255c-6.217,6.049 -13.638,10.782 -22.264,14.198c-8.625,3.417 -18.034,5.125 -28.228,5.125c-10.305,0 -19.743,-1.708 -28.312,-5.125c-8.569,-3.416 -15.934,-8.149 -22.095,-14.198c-6.161,-6.049 -10.978,-13.134 -14.45,-21.255c-3.473,-8.121 -5.209,-16.887 -5.209,-26.296Z" style="fill:#9ec2a6;fill-rule:nonzero;"/><path d="M1218.79,211.308l0,-126.69l32.933,0l60.825,77.459l0,-77.459l32.765,0l0,126.69l-32.765,0l-60.825,-77.459l0,77.459l-32.933,0Z" style="fill:#9ec2a6;fill-rule:nonzero;"/><path d="M1414.87,112.51l0,98.798l-32.933,0l0,-98.798l-27.052,0l0,-27.892l87.037,0l0,27.892l-27.052,0Z" style="fill:#9ec2a6;fill-rule:nonzero;"/></g><g><path d="M617.808,327.727l6.85,0c7.157,0 12.649,-1.481 16.474,-4.443c3.826,-2.962 5.739,-7.219 5.739,-12.772c0,-5.554 -1.913,-9.811 -5.739,-12.773c-3.825,-2.962 -9.317,-4.443 -16.474,-4.443l-6.85,0l0,34.431Zm79.783,77.19l-45.167,0l-34.616,-53.681l0,53.681l-36.281,0l0,-139.572l56.458,0c7.775,0 14.562,1.141 20.362,3.424c5.801,2.283 10.582,5.399 14.346,9.348c3.764,3.949 6.603,8.515 8.515,13.698c1.913,5.184 2.87,10.737 2.87,16.66c0,10.613 -2.561,19.221 -7.682,25.823c-5.122,6.602 -12.68,11.076 -22.676,13.42l43.871,57.199Z" style="fill:#fffac2;fill-rule:nonzero;"/><path d="M792.181,296.073l-43.13,0l0,23.324l40.724,0l0,30.728l-40.724,0l0,24.064l43.13,0l0,30.728l-79.411,0l0,-139.572l79.411,0l0,30.728Z" style="fill:#fffac2;fill-rule:nonzero;"/><path d="M871.223,296.073l0,108.844l-36.281,0l0,-108.844l-29.803,0l0,-30.728l95.887,0l0,30.728l-29.803,0Z" style="fill:#fffac2;fill-rule:nonzero;"/><path d="M986.546,353.087l-16.289,-46.463l-16.29,46.463l32.579,0Zm9.626,27.581l-51.831,0l-8.33,24.249l-38.687,0l53.126,-139.572l39.613,0l53.127,139.572l-38.688,0l-8.33,-24.249Z" style="fill:#fffac2;fill-rule:nonzero;"/><rect x="1059.11" y="265.345" width="36.281" height="139.572" style="fill:#fffac2;fill-rule:nonzero;"/><path d="M1160.92,265.345l0,108.844l43.501,0l0,30.728l-79.782,0l0,-139.572l36.281,0Z" style="fill:#fffac2;fill-rule:nonzero;"/><path d="M1345.47,316.25c8.639,-5.183 12.958,-10.983 12.958,-17.4c0,-3.456 -1.142,-6.448 -3.425,-8.978c-2.283,-2.53 -5.214,-3.795 -8.792,-3.795c-3.332,0 -6.109,1.111 -8.33,3.332c-2.222,2.221 -3.332,4.998 -3.332,8.33c0,4.443 3.64,10.613 10.921,18.511Zm-14.994,30.358c-8.762,5.43 -13.142,10.86 -13.142,16.289c0,1.975 0.431,3.795 1.295,5.461c0.864,1.666 2.037,3.085 3.517,4.258c1.481,1.172 3.178,2.098 5.091,2.776c1.913,0.679 3.98,1.018 6.201,1.018c6.17,0 12.526,-2.036 19.066,-6.108l-22.028,-23.694Zm48.499,4.998c7.404,-7.034 13.451,-13.698 18.141,-19.992l20.547,19.807c-2.098,2.838 -4.474,5.707 -7.127,8.607c-2.653,2.9 -5.707,5.955 -9.163,9.163l-2.776,2.592l31.098,33.134l-45.167,0l-12.217,-12.772c-16.66,11.106 -32.641,16.66 -47.943,16.66c-6.541,0 -12.526,-0.988 -17.956,-2.962c-5.43,-1.975 -10.119,-4.751 -14.068,-8.33c-3.949,-3.579 -7.034,-7.806 -9.256,-12.68c-2.221,-4.875 -3.332,-10.212 -3.332,-16.012c0,-5.183 0.71,-9.78 2.129,-13.791c1.419,-4.01 3.857,-7.867 7.312,-11.569c2.591,-2.838 5.461,-5.276 8.608,-7.312c3.146,-2.036 7.003,-4.103 11.569,-6.201l3.887,-1.851l-2.406,-2.777c-7.158,-9.008 -10.737,-17.585 -10.737,-25.73c0,-5.43 1.111,-10.489 3.332,-15.179c2.222,-4.689 5.276,-8.731 9.163,-12.125c3.888,-3.393 8.484,-6.046 13.791,-7.959c5.306,-1.913 11.045,-2.869 17.215,-2.869c6.294,0 12.094,0.956 17.4,2.869c5.307,1.913 9.904,4.597 13.791,8.052c3.887,3.455 6.911,7.497 9.07,12.125c2.16,4.627 3.24,9.656 3.24,15.086c0,3.702 -0.432,7.065 -1.296,10.089c-0.864,3.023 -2.314,5.861 -4.35,8.515c-2.036,2.653 -4.69,5.183 -7.96,7.589c-3.27,2.406 -7.312,4.844 -12.124,7.312l17.585,18.511Z" style="fill:#fffac2;fill-rule:nonzero;"/><path d="M649.462,517.464l72.008,0c0,7.404 -0.309,14.13 -0.926,20.177c-0.617,6.047 -1.851,11.662 -3.702,16.845c-2.592,7.281 -6.109,13.729 -10.551,19.344c-4.443,5.614 -9.657,10.304 -15.642,14.068c-5.985,3.764 -12.557,6.633 -19.714,8.607c-7.158,1.975 -14.685,2.962 -22.583,2.962c-10.86,0 -20.764,-1.789 -29.711,-5.368c-8.946,-3.579 -16.629,-8.608 -23.046,-15.086c-6.417,-6.479 -11.415,-14.254 -14.994,-23.324c-3.578,-9.071 -5.368,-19.097 -5.368,-30.08c0,-10.86 1.759,-20.825 5.276,-29.896c3.517,-9.07 8.515,-16.814 14.994,-23.231c6.479,-6.417 14.284,-11.415 23.416,-14.994c9.132,-3.578 19.313,-5.368 30.543,-5.368c14.562,0 27.335,3.147 38.318,9.441c10.983,6.293 19.683,16.043 26.1,29.247l-34.43,14.253c-3.209,-7.651 -7.374,-13.142 -12.495,-16.474c-5.121,-3.332 -10.952,-4.998 -17.493,-4.998c-5.43,0 -10.366,1.018 -14.809,3.054c-4.442,2.036 -8.237,4.936 -11.384,8.7c-3.147,3.764 -5.615,8.299 -7.404,13.606c-1.79,5.306 -2.684,11.23 -2.684,17.77c0,5.924 0.771,11.415 2.314,16.475c1.542,5.06 3.856,9.44 6.941,13.143c3.085,3.702 6.911,6.571 11.477,8.607c4.566,2.036 9.872,3.055 15.919,3.055c3.579,0 7.035,-0.402 10.367,-1.204c3.331,-0.802 6.324,-2.098 8.977,-3.887c2.654,-1.789 4.844,-4.103 6.572,-6.942c1.727,-2.838 2.9,-6.293 3.517,-10.366l-29.803,0l0,-28.136Z" style="fill:#fffac2;fill-rule:nonzero;"/><path d="M768.117,518.389l6.849,0c7.158,0 12.649,-1.481 16.475,-4.442c3.826,-2.962 5.738,-7.22 5.738,-12.773c0,-5.553 -1.912,-9.811 -5.738,-12.772c-3.826,-2.962 -9.317,-4.443 -16.475,-4.443l-6.849,0l0,34.43Zm79.782,77.191l-45.166,0l-34.616,-53.682l0,53.682l-36.281,0l0,-139.573l56.458,0c7.775,0 14.562,1.142 20.362,3.425c5.8,2.283 10.582,5.399 14.346,9.348c3.764,3.949 6.602,8.515 8.515,13.698c1.913,5.183 2.869,10.736 2.869,16.66c0,10.613 -2.56,19.22 -7.682,25.823c-5.121,6.602 -12.68,11.075 -22.676,13.42l43.871,57.199Z" style="fill:#fffac2;fill-rule:nonzero;"/><path d="M879.553,525.794c0,5.553 1.049,10.674 3.147,15.364c2.098,4.689 4.936,8.762 8.515,12.217c3.579,3.455 7.744,6.139 12.495,8.052c4.751,1.913 9.78,2.869 15.086,2.869c5.307,0 10.335,-0.956 15.087,-2.869c4.751,-1.913 8.947,-4.597 12.587,-8.052c3.641,-3.455 6.51,-7.528 8.608,-12.217c2.098,-4.69 3.146,-9.811 3.146,-15.364c0,-5.554 -1.048,-10.675 -3.146,-15.364c-2.098,-4.69 -4.967,-8.762 -8.608,-12.218c-3.64,-3.455 -7.836,-6.139 -12.587,-8.052c-4.752,-1.913 -9.78,-2.869 -15.087,-2.869c-5.306,0 -10.335,0.956 -15.086,2.869c-4.751,1.913 -8.916,4.597 -12.495,8.052c-3.579,3.456 -6.417,7.528 -8.515,12.218c-2.098,4.689 -3.147,9.81 -3.147,15.364Zm-37.947,0c0,-10.366 1.912,-20.023 5.738,-28.97c3.826,-8.947 9.132,-16.752 15.919,-23.416c6.788,-6.664 14.902,-11.878 24.342,-15.642c9.441,-3.764 19.838,-5.646 31.191,-5.646c11.23,0 21.596,1.882 31.099,5.646c9.502,3.764 17.678,8.978 24.527,15.642c6.849,6.664 12.186,14.469 16.012,23.416c3.825,8.947 5.738,18.604 5.738,28.97c0,10.366 -1.913,20.022 -5.738,28.969c-3.826,8.947 -9.163,16.753 -16.012,23.417c-6.849,6.664 -15.025,11.877 -24.527,15.641c-9.503,3.764 -19.869,5.646 -31.099,5.646c-11.353,0 -21.75,-1.882 -31.191,-5.646c-9.44,-3.764 -17.554,-8.977 -24.342,-15.641c-6.787,-6.664 -12.093,-14.47 -15.919,-23.417c-3.826,-8.947 -5.738,-18.603 -5.738,-28.969Z" style="fill:#fffac2;fill-rule:nonzero;"/><path d="M1107.05,502.655c-8.391,-10.243 -18.757,-15.364 -31.098,-15.364c-5.43,0 -10.459,0.987 -15.086,2.962c-4.628,1.974 -8.608,4.658 -11.94,8.052c-3.332,3.394 -5.954,7.435 -7.867,12.125c-1.913,4.689 -2.869,9.749 -2.869,15.179c0,5.553 0.956,10.674 2.869,15.364c1.913,4.689 4.566,8.761 7.96,12.217c3.393,3.455 7.373,6.17 11.939,8.145c4.566,1.974 9.502,2.961 14.809,2.961c11.6,0 22.028,-4.936 31.283,-14.808l0,42.945l-3.702,1.296c-5.553,1.974 -10.736,3.424 -15.549,4.35c-4.813,0.925 -9.564,1.388 -14.253,1.388c-9.626,0 -18.851,-1.82 -27.674,-5.461c-8.824,-3.64 -16.598,-8.761 -23.324,-15.364c-6.726,-6.602 -12.125,-14.438 -16.197,-23.509c-4.072,-9.07 -6.109,-18.973 -6.109,-29.71c0,-10.736 2.006,-20.578 6.016,-29.525c4.011,-8.946 9.379,-16.659 16.105,-23.138c6.726,-6.479 14.531,-11.539 23.416,-15.179c8.885,-3.641 18.203,-5.461 27.952,-5.461c5.553,0 11.014,0.586 16.382,1.759c5.368,1.172 11.014,2.992 16.937,5.46l0,43.316Z" style="fill:#fffac2;fill-rule:nonzero;"/><path d="M1196.83,486.736l-43.13,0l0,23.323l40.724,0l0,30.728l-40.724,0l0,24.065l43.13,0l0,30.728l-79.411,0l0,-139.573l79.411,0l0,30.729Z" style="fill:#fffac2;fill-rule:nonzero;"/><path d="M1246.62,518.389l6.849,0c7.157,0 12.649,-1.481 16.475,-4.442c3.825,-2.962 5.738,-7.22 5.738,-12.773c0,-5.553 -1.913,-9.811 -5.738,-12.772c-3.826,-2.962 -9.318,-4.443 -16.475,-4.443l-6.849,0l0,34.43Zm79.782,77.191l-45.167,0l-34.615,-53.682l0,53.682l-36.282,0l0,-139.573l56.459,0c7.774,0 14.562,1.142 20.362,3.425c5.8,2.283 10.582,5.399 14.346,9.348c3.764,3.949 6.602,8.515 8.515,13.698c1.913,5.183 2.869,10.736 2.869,16.66c0,10.613 -2.561,19.22 -7.682,25.823c-5.121,6.602 -12.68,11.075 -22.676,13.42l43.871,57.199Z" style="fill:#fffac2;fill-rule:nonzero;"/><path d="M1405.63,491.734c-3.949,-3.209 -7.898,-5.585 -11.847,-7.127c-3.949,-1.543 -7.775,-2.314 -11.477,-2.314c-4.69,0 -8.515,1.111 -11.477,3.332c-2.962,2.221 -4.442,5.121 -4.442,8.7c0,2.468 0.74,4.504 2.221,6.109c1.481,1.604 3.424,2.992 5.831,4.165c2.406,1.172 5.121,2.19 8.145,3.054c3.023,0.864 6.016,1.789 8.977,2.777c11.847,3.949 20.517,9.224 26.008,15.826c5.492,6.603 8.238,15.21 8.238,25.823c0,7.158 -1.204,13.637 -3.61,19.437c-2.406,5.8 -5.924,10.767 -10.551,14.901c-4.628,4.134 -10.305,7.343 -17.03,9.626c-6.726,2.283 -14.346,3.424 -22.861,3.424c-17.647,0 -33.999,-5.245 -49.054,-15.734l15.549,-29.247c5.43,4.812 10.798,8.391 16.104,10.736c5.307,2.345 10.552,3.517 15.735,3.517c5.923,0 10.335,-1.357 13.235,-4.072c2.9,-2.715 4.35,-5.8 4.35,-9.256c0,-2.098 -0.37,-3.918 -1.111,-5.461c-0.74,-1.542 -1.974,-2.961 -3.702,-4.257c-1.727,-1.296 -3.98,-2.499 -6.756,-3.61c-2.777,-1.11 -6.14,-2.344 -10.089,-3.702c-4.689,-1.481 -9.286,-3.116 -13.79,-4.905c-4.505,-1.79 -8.515,-4.165 -12.032,-7.127c-3.518,-2.962 -6.356,-6.695 -8.515,-11.199c-2.16,-4.504 -3.24,-10.212 -3.24,-17.123c0,-6.911 1.142,-13.173 3.425,-18.788c2.283,-5.615 5.491,-10.428 9.625,-14.439c4.134,-4.011 9.194,-7.127 15.179,-9.348c5.985,-2.221 12.68,-3.332 20.085,-3.332c6.91,0 14.13,0.957 21.657,2.869c7.528,1.913 14.747,4.721 21.658,8.423l-14.438,28.322Z" style="fill:#fffac2;fill-rule:nonzero;"/></g><g><path d="M632.655,698.743l-10.483,-29.903l-10.484,29.903l20.967,0Zm6.195,17.75l-33.357,0l-5.361,15.607l-24.899,0l34.192,-89.826l25.494,0l34.191,89.826l-24.899,0l-5.361,-15.607Z" style="fill:#9ec2a6;fill-rule:nonzero;"/><path d="M724.507,665.266c-2.541,-2.065 -5.083,-3.594 -7.624,-4.586c-2.542,-0.993 -5.004,-1.49 -7.387,-1.49c-3.018,0 -5.48,0.715 -7.386,2.145c-1.906,1.429 -2.859,3.296 -2.859,5.599c0,1.589 0.476,2.899 1.429,3.931c0.954,1.033 2.204,1.926 3.753,2.681c1.549,0.754 3.296,1.41 5.242,1.966c1.946,0.556 3.872,1.151 5.778,1.787c7.624,2.541 13.204,5.936 16.738,10.186c3.534,4.249 5.302,9.788 5.302,16.619c0,4.606 -0.775,8.776 -2.323,12.509c-1.549,3.732 -3.813,6.929 -6.791,9.59c-2.978,2.66 -6.632,4.725 -10.96,6.195c-4.329,1.469 -9.233,2.204 -14.713,2.204c-11.358,0 -21.881,-3.376 -31.571,-10.127l10.008,-18.823c3.494,3.098 6.949,5.401 10.364,6.91c3.415,1.509 6.791,2.264 10.127,2.264c3.812,0 6.651,-0.874 8.518,-2.621c1.866,-1.748 2.799,-3.733 2.799,-5.957c0,-1.35 -0.238,-2.522 -0.715,-3.514c-0.476,-0.993 -1.27,-1.907 -2.382,-2.74c-1.112,-0.834 -2.562,-1.609 -4.349,-2.324c-1.787,-0.714 -3.951,-1.509 -6.492,-2.382c-3.018,-0.953 -5.977,-2.006 -8.876,-3.157c-2.899,-1.152 -5.48,-2.681 -7.743,-4.587c-2.264,-1.906 -4.091,-4.309 -5.481,-7.207c-1.389,-2.899 -2.084,-6.573 -2.084,-11.02c0,-4.448 0.734,-8.479 2.204,-12.092c1.469,-3.614 3.534,-6.711 6.194,-9.293c2.661,-2.581 5.917,-4.586 9.769,-6.016c3.852,-1.429 8.161,-2.144 12.926,-2.144c4.448,0 9.094,0.615 13.939,1.846c4.845,1.231 9.491,3.038 13.938,5.421l-9.292,18.227Z" style="fill:#9ec2a6;fill-rule:nonzero;"/><path d="M797.297,665.266c-2.541,-2.065 -5.083,-3.594 -7.624,-4.586c-2.542,-0.993 -5.004,-1.49 -7.386,-1.49c-3.018,0 -5.48,0.715 -7.387,2.145c-1.906,1.429 -2.859,3.296 -2.859,5.599c0,1.589 0.477,2.899 1.43,3.931c0.953,1.033 2.204,1.926 3.752,2.681c1.549,0.754 3.296,1.41 5.242,1.966c1.946,0.556 3.872,1.151 5.778,1.787c7.625,2.541 13.204,5.936 16.738,10.186c3.535,4.249 5.302,9.788 5.302,16.619c0,4.606 -0.774,8.776 -2.323,12.509c-1.549,3.732 -3.812,6.929 -6.791,9.59c-2.978,2.66 -6.632,4.725 -10.96,6.195c-4.329,1.469 -9.233,2.204 -14.713,2.204c-11.357,0 -21.881,-3.376 -31.57,-10.127l10.007,-18.823c3.495,3.098 6.949,5.401 10.365,6.91c3.415,1.509 6.79,2.264 10.126,2.264c3.812,0 6.651,-0.874 8.518,-2.621c1.866,-1.748 2.799,-3.733 2.799,-5.957c0,-1.35 -0.238,-2.522 -0.714,-3.514c-0.477,-0.993 -1.271,-1.907 -2.383,-2.74c-1.112,-0.834 -2.561,-1.609 -4.348,-2.324c-1.787,-0.714 -3.952,-1.509 -6.493,-2.382c-3.018,-0.953 -5.977,-2.006 -8.875,-3.157c-2.899,-1.152 -5.481,-2.681 -7.744,-4.587c-2.264,-1.906 -4.09,-4.309 -5.48,-7.207c-1.39,-2.899 -2.085,-6.573 -2.085,-11.02c0,-4.448 0.735,-8.479 2.204,-12.092c1.469,-3.614 3.534,-6.711 6.195,-9.293c2.66,-2.581 5.917,-4.586 9.769,-6.016c3.852,-1.429 8.16,-2.144 12.926,-2.144c4.447,0 9.093,0.615 13.938,1.846c4.845,1.231 9.491,3.038 13.939,5.421l-9.293,18.227Z" style="fill:#9ec2a6;fill-rule:nonzero;"/><path d="M841.138,687.187c0,3.574 0.675,6.87 2.026,9.888c1.35,3.018 3.177,5.639 5.48,7.863c2.303,2.223 4.984,3.951 8.041,5.182c3.058,1.231 6.294,1.846 9.71,1.846c3.415,0 6.651,-0.615 9.709,-1.846c3.058,-1.231 5.758,-2.959 8.101,-5.182c2.343,-2.224 4.19,-4.845 5.54,-7.863c1.35,-3.018 2.025,-6.314 2.025,-9.888c0,-3.574 -0.675,-6.87 -2.025,-9.888c-1.35,-3.018 -3.197,-5.639 -5.54,-7.863c-2.343,-2.224 -5.043,-3.951 -8.101,-5.182c-3.058,-1.231 -6.294,-1.847 -9.709,-1.847c-3.416,0 -6.652,0.616 -9.71,1.847c-3.057,1.231 -5.738,2.958 -8.041,5.182c-2.303,2.224 -4.13,4.845 -5.48,7.863c-1.351,3.018 -2.026,6.314 -2.026,9.888Zm-24.422,0c0,-6.672 1.231,-12.887 3.693,-18.645c2.462,-5.758 5.877,-10.781 10.246,-15.07c4.368,-4.289 9.59,-7.644 15.666,-10.067c6.075,-2.422 12.767,-3.633 20.074,-3.633c7.227,0 13.898,1.211 20.014,3.633c6.115,2.423 11.377,5.778 15.785,10.067c4.408,4.289 7.843,9.312 10.305,15.07c2.462,5.758 3.693,11.973 3.693,18.645c0,6.671 -1.231,12.886 -3.693,18.644c-2.462,5.758 -5.897,10.782 -10.305,15.07c-4.408,4.289 -9.67,7.645 -15.785,10.067c-6.116,2.422 -12.787,3.634 -20.014,3.634c-7.307,0 -13.999,-1.212 -20.074,-3.634c-6.076,-2.422 -11.298,-5.778 -15.666,-10.067c-4.369,-4.288 -7.784,-9.312 -10.246,-15.07c-2.462,-5.758 -3.693,-11.973 -3.693,-18.644Z" style="fill:#9ec2a6;fill-rule:nonzero;"/><path d="M991.484,672.295c-5.4,-6.592 -12.072,-9.888 -20.014,-9.888c-3.495,0 -6.731,0.635 -9.709,1.906c-2.979,1.271 -5.54,2.998 -7.684,5.182c-2.145,2.185 -3.833,4.786 -5.064,7.804c-1.231,3.018 -1.846,6.274 -1.846,9.769c0,3.574 0.615,6.87 1.846,9.888c1.231,3.018 2.939,5.639 5.123,7.862c2.184,2.224 4.746,3.972 7.684,5.242c2.939,1.271 6.116,1.906 9.531,1.906c7.466,0 14.177,-3.176 20.133,-9.53l0,27.639l-2.382,0.834c-3.574,1.27 -6.91,2.204 -10.007,2.799c-3.098,0.596 -6.156,0.894 -9.174,0.894c-6.195,0 -12.131,-1.172 -17.81,-3.515c-5.679,-2.343 -10.682,-5.639 -15.011,-9.888c-4.328,-4.249 -7.803,-9.292 -10.424,-15.13c-2.621,-5.837 -3.931,-12.211 -3.931,-19.121c0,-6.909 1.29,-13.243 3.871,-19.001c2.582,-5.758 6.036,-10.722 10.365,-14.892c4.328,-4.17 9.352,-7.426 15.07,-9.769c5.719,-2.343 11.715,-3.514 17.989,-3.514c3.574,0 7.089,0.377 10.544,1.131c3.455,0.755 7.088,1.926 10.9,3.515l0,27.877Z" style="fill:#9ec2a6;fill-rule:nonzero;"/><rect x="1002.09" y="642.274" width="23.35" height="89.826" style="fill:#9ec2a6;fill-rule:nonzero;"/><path d="M1088.93,698.743l-10.484,-29.903l-10.483,29.903l20.967,0Zm6.195,17.75l-33.357,0l-5.361,15.607l-24.899,0l34.191,-89.826l25.495,0l34.191,89.826l-24.899,0l-5.361,-15.607Z" style="fill:#9ec2a6;fill-rule:nonzero;"/><path d="M1161.61,662.05l0,70.05l-23.35,0l0,-70.05l-19.18,0l0,-19.776l61.711,0l0,19.776l-19.181,0Z" style="fill:#9ec2a6;fill-rule:nonzero;"/><rect x="1186.98" y="642.274" width="23.35" height="89.826" style="fill:#9ec2a6;fill-rule:nonzero;"/><path d="M1245.36,687.187c0,3.574 0.675,6.87 2.025,9.888c1.35,3.018 3.177,5.639 5.48,7.863c2.304,2.223 4.984,3.951 8.042,5.182c3.058,1.231 6.294,1.846 9.709,1.846c3.415,0 6.652,-0.615 9.71,-1.846c3.057,-1.231 5.758,-2.959 8.101,-5.182c2.343,-2.224 4.189,-4.845 5.539,-7.863c1.35,-3.018 2.026,-6.314 2.026,-9.888c0,-3.574 -0.676,-6.87 -2.026,-9.888c-1.35,-3.018 -3.196,-5.639 -5.539,-7.863c-2.343,-2.224 -5.044,-3.951 -8.101,-5.182c-3.058,-1.231 -6.295,-1.847 -9.71,-1.847c-3.415,0 -6.651,0.616 -9.709,1.847c-3.058,1.231 -5.738,2.958 -8.042,5.182c-2.303,2.224 -4.13,4.845 -5.48,7.863c-1.35,3.018 -2.025,6.314 -2.025,9.888Zm-24.422,0c0,-6.672 1.231,-12.887 3.693,-18.645c2.462,-5.758 5.877,-10.781 10.245,-15.07c4.368,-4.289 9.59,-7.644 15.666,-10.067c6.076,-2.422 12.767,-3.633 20.074,-3.633c7.228,0 13.899,1.211 20.015,3.633c6.115,2.423 11.377,5.778 15.785,10.067c4.408,4.289 7.843,9.312 10.305,15.07c2.462,5.758 3.693,11.973 3.693,18.645c0,6.671 -1.231,12.886 -3.693,18.644c-2.462,5.758 -5.897,10.782 -10.305,15.07c-4.408,4.289 -9.67,7.645 -15.785,10.067c-6.116,2.422 -12.787,3.634 -20.015,3.634c-7.307,0 -13.998,-1.212 -20.074,-3.634c-6.076,-2.422 -11.298,-5.778 -15.666,-10.067c-4.368,-4.288 -7.783,-9.312 -10.245,-15.07c-2.462,-5.758 -3.693,-11.973 -3.693,-18.644Z" style="fill:#9ec2a6;fill-rule:nonzero;"/><path d="M1331.01,732.1l0,-89.826l23.35,0l43.126,54.92l0,-54.92l23.231,0l0,89.826l-23.231,0l-43.126,-54.92l0,54.92l-23.35,0Z" style="fill:#9ec2a6;fill-rule:nonzero;"/></g></g><rect x="481.531" y="76.13" width="20.864" height="663.43" style="fill:#fff;"/></svg>